<svg width="52" height="52" viewBox="0 0 52 52" fill="none" xmlns="http://www.w3.org/2000/svg">
<path d="M46.0217 33.9813H5.79174C3.57708 33.9813 1.78174 35.7767 1.78174 37.9913V46.0513C1.78174 48.266 3.57708 50.0613 5.79174 50.0613H46.0217C48.2364 50.0613 50.0317 48.266 50.0317 46.0513V37.9913C50.0317 35.7767 48.2364 33.9813 46.0217 33.9813Z" fill="#F5CB1C" stroke="#1D1D1B" stroke-width="3" stroke-miterlimit="10"/>
<path d="M18.9017 1.87134H32.9017C35.1508 1.87003 37.3781 2.31188 39.4563 3.17165C41.5346 4.03142 43.4231 5.29227 45.0139 6.88214C46.6047 8.47201 47.8666 10.3597 48.7276 12.4375C49.5886 14.5152 50.0317 16.7423 50.0317 18.9913C50.0317 19.6033 49.9112 20.2093 49.677 20.7746C49.4428 21.34 49.0996 21.8537 48.6669 22.2865C48.2341 22.7192 47.7204 23.0624 47.155 23.2966C46.5897 23.5308 45.9837 23.6513 45.3717 23.6513H6.44174C5.20583 23.6513 4.02054 23.1604 3.14662 22.2865C2.2727 21.4125 1.78174 20.2273 1.78174 18.9913C1.78174 14.4508 3.58545 10.0963 6.79607 6.88567C10.0067 3.67505 14.3612 1.87134 18.9017 1.87134Z" fill="#F5CB1C" stroke="#1D1D1B" stroke-width="3" stroke-miterlimit="10"/>
<path d="M46.8217 23.6513H4.99174C3.2189 23.6513 1.78174 25.0885 1.78174 26.8613V30.7613C1.78174 32.5342 3.2189 33.9713 4.99174 33.9713H46.8217C48.5946 33.9713 50.0317 32.5342 50.0317 30.7613V26.8613C50.0317 25.0885 48.5946 23.6513 46.8217 23.6513Z" fill="#F5831C" stroke="#1D1D1B" stroke-width="3" stroke-miterlimit="10"/>
<path d="M16.4718 5.82136C17.488 5.82136 18.3118 4.99756 18.3118 3.98136C18.3118 2.96515 17.488 2.14136 16.4718 2.14136C15.4556 2.14136 14.6318 2.96515 14.6318 3.98136C14.6318 4.99756 15.4556 5.82136 16.4718 5.82136Z" fill="#1D1D1B"/>
<path d="M25.9118 5.82136C26.928 5.82136 27.7518 4.99756 27.7518 3.98136C27.7518 2.96515 26.928 2.14136 25.9118 2.14136C24.8956 2.14136 24.0718 2.96515 24.0718 3.98136C24.0718 4.99756 24.8956 5.82136 25.9118 5.82136Z" fill="#1D1D1B"/>
<path d="M21.1918 12.7614C22.208 12.7614 23.0318 11.9376 23.0318 10.9214C23.0318 9.90516 22.208 9.08136 21.1918 9.08136C20.1756 9.08136 19.3518 9.90516 19.3518 10.9214C19.3518 11.9376 20.1756 12.7614 21.1918 12.7614Z" fill="#1D1D1B"/>
<path d="M11.7516 12.7614C12.7678 12.7614 13.5916 11.9376 13.5916 10.9214C13.5916 9.90516 12.7678 9.08136 11.7516 9.08136C10.7354 9.08136 9.91162 9.90516 9.91162 10.9214C9.91162 11.9376 10.7354 12.7614 11.7516 12.7614Z" fill="#1D1D1B"/>
<path d="M30.6317 12.7614C31.648 12.7614 32.4717 11.9376 32.4717 10.9214C32.4717 9.90516 31.648 9.08136 30.6317 9.08136C29.6155 9.08136 28.7917 9.90516 28.7917 10.9214C28.7917 11.9376 29.6155 12.7614 30.6317 12.7614Z" fill="#1D1D1B"/>
<path d="M40.0717 12.7614C41.0879 12.7614 41.9117 11.9376 41.9117 10.9214C41.9117 9.90516 41.0879 9.08136 40.0717 9.08136C39.0555 9.08136 38.2317 9.90516 38.2317 10.9214C38.2317 11.9376 39.0555 12.7614 40.0717 12.7614Z" fill="#1D1D1B"/>
<path d="M35.3517 5.82136C36.3679 5.82136 37.1917 4.99756 37.1917 3.98136C37.1917 2.96515 36.3679 2.14136 35.3517 2.14136C34.3355 2.14136 33.5117 2.96515 33.5117 3.98136C33.5117 4.99756 34.3355 5.82136 35.3517 5.82136Z" fill="#1D1D1B"/>
</svg>
