<svg width="376" height="500" viewBox="0 0 376 500" fill="none" xmlns="http://www.w3.org/2000/svg">
<g clip-path="url(#clip0_288_167)">
<path d="M176.941 45.9741C180.723 45.9741 183.79 42.9076 183.79 39.1248C183.79 35.342 180.723 32.2755 176.941 32.2755C173.158 32.2755 170.091 35.342 170.091 39.1248C170.091 42.9076 173.158 45.9741 176.941 45.9741Z" fill="white" stroke="#1D1D1B" stroke-width="3" stroke-linecap="round" stroke-linejoin="round"/>
<path d="M164.718 39.1629C168.501 39.1629 171.568 36.0963 171.568 32.3135C171.568 28.5308 168.501 25.4642 164.718 25.4642C160.936 25.4642 157.869 28.5308 157.869 32.3135C157.869 36.0963 160.936 39.1629 164.718 39.1629Z" fill="white" stroke="#1D1D1B" stroke-width="3" stroke-linecap="round" stroke-linejoin="round"/>
<path d="M156.103 28.067C159.886 28.067 162.953 25.0004 162.953 21.2177C162.953 17.4349 159.886 14.3683 156.103 14.3683C152.321 14.3683 149.254 17.4349 149.254 21.2177C149.254 25.0004 152.321 28.067 156.103 28.067Z" fill="white" stroke="#1D1D1B" stroke-width="3" stroke-linecap="round" stroke-linejoin="round"/>
<path d="M151.088 14.8402C154.871 14.8402 157.938 11.7736 157.938 7.99087C157.938 4.2081 154.871 1.14156 151.088 1.14156C147.306 1.14156 144.239 4.2081 144.239 7.99087C144.239 11.7736 147.306 14.8402 151.088 14.8402Z" fill="white" stroke="#1D1D1B" stroke-width="3" stroke-linecap="round" stroke-linejoin="round"/>
<path d="M198.699 45.9741C202.481 45.9741 205.548 42.9076 205.548 39.1248C205.548 35.342 202.481 32.2755 198.699 32.2755C194.916 32.2755 191.849 35.342 191.849 39.1248C191.849 42.9076 194.916 45.9741 198.699 45.9741Z" fill="white" stroke="#1D1D1B" stroke-width="3" stroke-linecap="round" stroke-linejoin="round"/>
<path d="M210.921 39.1629C214.704 39.1629 217.77 36.0963 217.77 32.3135C217.77 28.5308 214.704 25.4642 210.921 25.4642C207.138 25.4642 204.072 28.5308 204.072 32.3135C204.072 36.0963 207.138 39.1629 210.921 39.1629Z" fill="white" stroke="#1D1D1B" stroke-width="3" stroke-linecap="round" stroke-linejoin="round"/>
<path d="M219.543 28.067C223.326 28.067 226.393 25.0004 226.393 21.2177C226.393 17.4349 223.326 14.3683 219.543 14.3683C215.761 14.3683 212.694 17.4349 212.694 21.2177C212.694 25.0004 215.761 28.067 219.543 28.067Z" fill="white" stroke="#1D1D1B" stroke-width="3" stroke-linecap="round" stroke-linejoin="round"/>
<path d="M224.551 14.8402C228.334 14.8402 231.4 11.7736 231.4 7.99087C231.4 4.2081 228.334 1.14156 224.551 1.14156C220.768 1.14156 217.702 4.2081 217.702 7.99087C217.702 11.7736 220.768 14.8402 224.551 14.8402Z" fill="white" stroke="#1D1D1B" stroke-width="3" stroke-linecap="round" stroke-linejoin="round"/>
<path d="M210.609 66.9559C209.47 61.758 206.589 57.1053 202.444 53.7695C198.298 50.4336 193.137 48.6148 187.816 48.6148C182.495 48.6148 177.333 50.4336 173.188 53.7695C169.042 57.1053 166.161 61.758 165.023 66.9559C72.6865 80.3272 1.1416 173.904 1.1416 287.367C1.1416 410.008 84.7261 498.889 187.823 498.889C290.921 498.889 374.498 410.008 374.498 287.367C374.498 173.874 302.96 80.2968 210.609 66.9559ZM187.823 63.9117C189.639 63.907 191.403 64.5161 192.829 65.64C194.255 66.764 195.259 68.3369 195.678 70.1034C196.098 71.8699 195.908 73.7262 195.139 75.3712C194.371 77.0162 193.069 78.3532 191.445 79.1651C189.821 79.9771 187.971 80.2164 186.194 79.8441C184.417 79.4719 182.817 78.51 181.656 77.1145C180.494 75.7191 179.839 73.972 179.795 72.1569C179.751 70.3419 180.322 68.5653 181.416 67.1156C182.162 66.1215 183.13 65.3146 184.242 64.7586C185.354 64.2026 186.58 63.9126 187.823 63.9117V63.9117Z" fill="#54C4DB" stroke="#1D1D1B" stroke-width="3" stroke-miterlimit="10"/>
<path d="M290.145 383.257V180.35C290.145 176.088 286.69 172.633 282.428 172.633H93.6376C89.3757 172.633 85.9208 176.088 85.9208 180.35V383.257C85.9208 387.519 89.3757 390.974 93.6376 390.974H282.428C286.69 390.974 290.145 387.519 290.145 383.257Z" fill="white" stroke="#1D1D1B" stroke-width="3" stroke-linecap="round" stroke-linejoin="round"/>
<path d="M282.435 172.626H93.6378C92.6244 172.627 91.6211 172.827 90.6852 173.216C89.7493 173.605 88.8992 174.174 88.1833 174.891C87.4674 175.608 86.8999 176.46 86.513 177.396C86.1261 178.333 85.9275 179.337 85.9285 180.35V184.916C85.9285 182.871 86.7405 180.909 88.186 179.462C89.6316 178.015 91.5924 177.201 93.6378 177.199H282.435C284.481 177.201 286.443 178.015 287.89 179.462C289.337 180.909 290.15 182.87 290.152 184.916V180.35C290.152 178.303 289.339 176.339 287.892 174.891C286.445 173.442 284.483 172.628 282.435 172.626Z" fill="#1D1D1B" stroke="#1D1D1B" stroke-width="3" stroke-linecap="round" stroke-linejoin="round"/>
<path d="M145.639 153.714C142.67 154.254 139.608 153.597 137.122 151.885C134.636 150.174 132.929 147.548 132.374 144.581L143.47 142.542L154.772 140.457C155.31 143.425 154.651 146.485 152.94 148.969C151.229 151.453 148.604 153.159 145.639 153.714V153.714Z" stroke="#1D1D1B" stroke-width="3" stroke-miterlimit="10"/>
<path d="M149.148 141.537C149.301 142.273 149.305 143.031 149.161 143.769C149.017 144.506 148.726 145.207 148.308 145.831C147.889 146.454 147.349 146.988 146.721 147.4C146.093 147.812 145.389 148.095 144.65 148.231C143.912 148.368 143.153 148.355 142.419 148.194C141.685 148.033 140.991 147.728 140.377 147.295C139.763 146.862 139.242 146.311 138.844 145.674C138.446 145.036 138.179 144.326 138.059 143.584" stroke="#1D1D1B" stroke-width="3" stroke-miterlimit="10"/>
<path d="M145.89 154.939C144.26 155.243 142.586 155.222 140.964 154.878C139.342 154.533 137.804 153.873 136.437 152.933C135.071 151.994 133.903 150.794 133.001 149.403C132.099 148.011 131.48 146.456 131.18 144.825C130.914 143.378 131.113 141.885 131.748 140.558C132.383 139.232 133.422 138.14 134.716 137.441C136.009 136.741 137.491 136.469 138.949 136.663C140.407 136.858 141.766 137.509 142.831 138.524C143.466 137.196 144.504 136.104 145.798 135.402C147.091 134.701 148.574 134.427 150.033 134.62C151.491 134.812 152.852 135.462 153.919 136.474C154.986 137.487 155.706 138.812 155.974 140.259C156.577 143.542 155.854 146.93 153.964 149.682C152.074 152.433 149.171 154.324 145.89 154.939Z" fill="#F560B9" stroke="#1D1D1B" stroke-width="3" stroke-linecap="round" stroke-linejoin="round"/>
<path d="M144.878 149.292C143.992 149.457 143.082 149.446 142.201 149.258C141.319 149.071 140.483 148.711 139.741 148.2C138.998 147.689 138.364 147.036 137.874 146.279C137.385 145.523 137.049 144.677 136.887 143.79C136.846 143.627 136.839 143.458 136.866 143.292C136.892 143.127 136.953 142.968 137.044 142.827C137.134 142.686 137.253 142.565 137.392 142.471C137.532 142.378 137.689 142.314 137.854 142.283C138.019 142.253 138.188 142.257 138.352 142.295C138.515 142.333 138.669 142.404 138.804 142.504C138.939 142.604 139.052 142.73 139.136 142.876C139.22 143.021 139.273 143.182 139.292 143.349C139.539 144.468 140.211 145.449 141.166 146.083C142.122 146.716 143.286 146.954 144.414 146.746C145.541 146.538 146.544 145.899 147.21 144.966C147.876 144.032 148.153 142.877 147.983 141.743C147.925 141.425 147.995 141.097 148.178 140.831C148.362 140.564 148.643 140.382 148.961 140.323C149.279 140.265 149.607 140.335 149.873 140.518C150.14 140.702 150.322 140.983 150.381 141.301C150.545 142.187 150.534 143.097 150.346 143.979C150.159 144.861 149.799 145.697 149.288 146.439C148.777 147.181 148.124 147.816 147.368 148.305C146.611 148.795 145.765 149.13 144.878 149.292V149.292Z" fill="#1D1D1B"/>
<path d="M120.594 107.671C119.14 107.94 117.738 108.436 116.438 109.14C119.38 109.535 122.121 110.85 124.27 112.897C126.419 114.944 127.866 117.618 128.404 120.536C128.941 123.455 128.543 126.469 127.264 129.147C125.986 131.826 123.894 134.031 121.286 135.449C123.301 135.715 125.35 135.54 127.292 134.938C129.233 134.336 131.021 133.321 132.533 131.962C134.044 130.603 135.244 128.932 136.048 127.065C136.852 125.199 137.242 123.18 137.192 121.148C137.141 119.115 136.651 117.119 135.755 115.294C134.858 113.47 133.577 111.861 132 110.579C130.423 109.297 128.586 108.371 126.617 107.867C124.648 107.362 122.593 107.29 120.594 107.656V107.671Z" fill="white" stroke="#1D1D1B" stroke-width="3" stroke-linecap="round" stroke-linejoin="round"/>
<path d="M121.238 135.481C126.521 134.508 129.719 127.829 128.382 120.562C127.044 113.295 121.677 108.192 116.394 109.165C111.111 110.137 107.913 116.816 109.251 124.083C110.589 131.35 115.956 136.453 121.238 135.481Z" fill="#1D1D1B" stroke="#1D1D1B" stroke-width="3" stroke-linecap="round" stroke-linejoin="round"/>
<path d="M153.295 101.651C151.841 101.918 150.439 102.414 149.14 103.12C152.086 103.511 154.833 104.825 156.986 106.873C159.14 108.921 160.59 111.598 161.128 114.521C161.666 117.444 161.265 120.462 159.983 123.143C158.7 125.824 156.601 128.03 153.988 129.444C156.003 129.71 158.052 129.536 159.994 128.934C161.935 128.332 163.723 127.316 165.235 125.957C166.746 124.598 167.945 122.928 168.75 121.061C169.554 119.194 169.944 117.175 169.893 115.143C169.843 113.111 169.352 111.114 168.456 109.289C167.56 107.465 166.279 105.856 164.702 104.574C163.124 103.292 161.288 102.367 159.319 101.862C157.35 101.358 155.295 101.286 153.295 101.651V101.651Z" fill="white" stroke="#1D1D1B" stroke-width="3" stroke-linecap="round" stroke-linejoin="round"/>
<path d="M153.939 129.463C159.221 128.491 162.42 121.812 161.082 114.545C159.744 107.278 154.377 102.175 149.095 103.147C143.812 104.12 140.614 110.799 141.951 118.066C143.289 125.333 148.656 130.436 153.939 129.463Z" fill="#1D1D1B" stroke="#1D1D1B" stroke-width="3" stroke-linecap="round" stroke-linejoin="round"/>
<path d="M120.411 106.857L119.893 104.056" stroke="#1D1D1B" stroke-width="3" stroke-linecap="round" stroke-linejoin="round"/>
<path d="M113.661 110.015L111.811 107.846" stroke="#1D1D1B" stroke-width="3" stroke-linecap="round" stroke-linejoin="round"/>
<path d="M109.391 116.119L106.712 115.167" stroke="#1D1D1B" stroke-width="3" stroke-linecap="round" stroke-linejoin="round"/>
<path d="M152.907 100.875L152.39 98.0746" stroke="#1D1D1B" stroke-width="3" stroke-linecap="round" stroke-linejoin="round"/>
<path d="M146.157 104.026L144.315 101.865" stroke="#1D1D1B" stroke-width="3" stroke-linecap="round" stroke-linejoin="round"/>
<path d="M141.895 110.137L139.208 109.186" stroke="#1D1D1B" stroke-width="3" stroke-linecap="round" stroke-linejoin="round"/>
<path d="M341.126 295.266C342.633 295.741 344.267 295.598 345.668 294.869C347.07 294.14 348.124 292.884 348.6 291.377L355.213 270.411L374.498 276.499C374.351 272.892 374.132 269.307 373.843 265.746L358.234 260.822L354.429 259.635L351.385 269.216L346.454 284.84C345.915 284.43 345.31 284.116 344.665 283.912C343.159 283.436 341.527 283.579 340.126 284.307C338.725 285.036 337.671 286.291 337.196 287.797C336.72 289.303 336.863 290.935 337.591 292.336C338.32 293.737 339.575 294.791 341.081 295.266H341.126Z" fill="#F5CB1C" stroke="#1D1D1B" stroke-width="3" stroke-miterlimit="10"/>
<path d="M373.113 293.25C372.171 292.537 371.038 292.121 369.859 292.054C368.68 291.988 367.508 292.273 366.492 292.874C365.476 293.476 364.661 294.366 364.152 295.432C363.643 296.497 363.463 297.69 363.634 298.858C363.805 300.027 364.32 301.118 365.113 301.993C365.906 302.868 366.941 303.487 368.087 303.772C369.233 304.057 370.438 303.994 371.548 303.592C372.659 303.19 373.624 302.467 374.323 301.514C374.556 297.116 374.685 292.671 374.711 288.181L373.113 293.25Z" fill="#F5CB1C" stroke="#1D1D1B" stroke-width="3" stroke-miterlimit="10"/>
<path d="M191.964 451.126C190.905 447.853 189.435 444.728 187.588 441.827C188.006 441.72 188.417 441.606 188.836 441.469C192.528 440.28 195.809 438.07 198.298 435.094C200.787 432.119 202.383 428.5 202.901 424.655C203.42 420.811 202.839 416.898 201.227 413.37C199.615 409.841 197.037 406.842 193.791 404.717C190.545 402.593 186.764 401.43 182.885 401.365C179.007 401.299 175.189 402.333 171.873 404.346C168.557 406.36 165.879 409.271 164.148 412.743C162.417 416.214 161.705 420.105 162.093 423.965C155.599 422.529 148.852 422.708 142.444 424.486C136.035 426.264 130.161 429.587 125.335 434.163C123.213 431.112 120.303 428.695 116.915 427.167C113.528 425.639 109.79 425.059 106.099 425.487C102.407 425.916 98.9013 427.337 95.9539 429.6C93.0065 431.863 90.7279 434.883 89.3608 438.338C87.9937 441.794 87.5892 445.555 88.1904 449.222C88.7916 452.889 90.3759 456.325 92.7748 459.163C95.1737 462.001 98.2972 464.135 101.813 465.339C105.329 466.542 109.105 466.77 112.74 465.997C113.13 472.475 115.058 478.768 118.364 484.353C136.158 492.118 155.131 496.836 174.49 498.31C182.278 493.551 188.237 486.307 191.407 477.748C194.577 469.188 194.773 459.811 191.964 451.126V451.126Z" fill="white" stroke="#1D1D1B" stroke-width="3" stroke-linecap="round" stroke-linejoin="round"/>
<path d="M123.516 480.708C126.345 480.708 128.638 478.415 128.638 475.586C128.638 472.757 126.345 470.464 123.516 470.464C120.687 470.464 118.394 472.757 118.394 475.586C118.394 478.415 120.687 480.708 123.516 480.708Z" fill="#F560B9"/>
<path d="M184.49 460.936C187.319 460.936 189.612 458.643 189.612 455.814C189.612 452.986 187.319 450.693 184.49 450.693C181.661 450.693 179.368 452.986 179.368 455.814C179.368 458.643 181.661 460.936 184.49 460.936Z" fill="#F560B9"/>
<path d="M173.896 463.318L136.446 475.457C136.094 475.573 135.772 475.762 135.499 476.013C135.227 476.264 135.012 476.57 134.867 476.911C134.723 477.252 134.654 477.62 134.663 477.99C134.673 478.36 134.762 478.723 134.924 479.056C136.742 482.86 139.595 486.074 143.154 488.333C146.714 490.591 150.838 491.802 155.053 491.827L152.572 481.933C151.968 480.066 152.129 478.035 153.021 476.287C153.913 474.539 155.462 473.217 157.329 472.61L161.895 471.126L162.96 470.784C163.627 470.566 164.331 470.482 165.031 470.536C165.73 470.591 166.412 470.783 167.037 471.102C167.663 471.421 168.219 471.86 168.673 472.395C169.128 472.929 169.473 473.548 169.688 474.216V474.216C169.906 474.883 169.99 475.587 169.936 476.286C169.881 476.986 169.689 477.668 169.37 478.293C169.051 478.918 168.612 479.474 168.077 479.929C167.543 480.384 166.924 480.729 166.256 480.944L165.19 481.294L167.953 487.862C171.498 485.402 174.261 481.973 175.908 477.985C177.556 473.996 178.02 469.618 177.245 465.373C177.185 465.005 177.046 464.654 176.839 464.345C176.631 464.035 176.359 463.774 176.041 463.579C175.723 463.384 175.367 463.26 174.997 463.215C174.627 463.17 174.252 463.205 173.896 463.318V463.318Z" fill="#1D1D1B" stroke="#1D1D1B" stroke-width="3" stroke-linecap="round" stroke-linejoin="round"/>
<path d="M139.666 475.406L146.109 473.317L147.723 478.298C147.878 478.776 147.837 479.296 147.608 479.744C147.38 480.191 146.983 480.53 146.505 480.685L143.667 481.605C143.189 481.76 142.669 481.718 142.221 481.49C141.774 481.262 141.435 480.865 141.28 480.386L139.666 475.406Z" fill="white" stroke="#1D1D1B" stroke-width="3" stroke-miterlimit="10"/>
<path d="M168.258 466.152L174.686 464.068L176.301 469.049C176.456 469.527 176.415 470.047 176.186 470.495C175.958 470.943 175.561 471.281 175.083 471.436L172.245 472.356C171.767 472.511 171.247 472.47 170.799 472.241C170.351 472.013 170.013 471.616 169.858 471.138L168.243 466.157L168.258 466.152Z" fill="white" stroke="#1D1D1B" stroke-width="3" stroke-miterlimit="10"/>
<path d="M166.256 480.913C166.924 480.698 167.543 480.353 168.077 479.899C168.612 479.444 169.051 478.888 169.37 478.263C169.689 477.637 169.881 476.956 169.936 476.256C169.99 475.556 169.906 474.853 169.688 474.186V474.186C169.473 473.518 169.128 472.898 168.673 472.364C168.219 471.829 167.663 471.39 167.037 471.071C166.412 470.752 165.73 470.56 165.031 470.506C164.331 470.451 163.627 470.535 162.96 470.753L161.895 471.096L157.329 472.58C155.462 473.186 153.913 474.509 153.021 476.257C152.129 478.005 151.968 480.035 152.572 481.902L155.053 491.796C159.674 491.825 164.191 490.43 167.991 487.8L165.228 481.233L166.256 480.913Z" fill="#F560B9" stroke="#1D1D1B" stroke-width="3" stroke-linecap="round" stroke-linejoin="round"/>
<path d="M167.001 480.677L161.18 482.565" stroke="#1D1D1B" stroke-width="3" stroke-linecap="round" stroke-linejoin="round"/>
<path d="M132.169 445.122C130.921 445.53 129.745 446.131 128.683 446.903C131.325 446.901 133.899 447.736 136.036 449.289C138.173 450.841 139.763 453.031 140.578 455.543C141.393 458.056 141.391 460.762 140.572 463.273C139.753 465.784 138.159 467.972 136.02 469.521C137.827 469.521 139.613 469.13 141.254 468.374C142.896 467.618 144.354 466.515 145.528 465.141C146.702 463.768 147.564 462.156 148.056 460.417C148.547 458.677 148.656 456.852 148.374 455.067C148.092 453.282 147.427 451.58 146.424 450.076C145.421 448.573 144.104 447.305 142.564 446.36C141.023 445.415 139.296 444.814 137.502 444.601C135.708 444.387 133.888 444.565 132.169 445.122V445.122Z" stroke="#1D1D1B" stroke-width="3" stroke-linecap="round" stroke-linejoin="round"/>
<path d="M135.887 469.602C140.429 468.13 142.469 461.871 140.443 455.621C138.418 449.372 133.093 445.499 128.551 446.972C124.009 448.444 121.969 454.704 123.995 460.953C126.021 467.202 131.345 471.075 135.887 469.602Z" fill="#1D1D1B" stroke="#1D1D1B" stroke-width="3" stroke-linecap="round" stroke-linejoin="round"/>
<path d="M160.274 436.012C159.025 436.414 157.849 437.013 156.788 437.785C159.429 437.787 162.002 438.624 164.138 440.177C166.274 441.73 167.863 443.92 168.678 446.433C169.492 448.945 169.49 451.651 168.673 454.162C167.855 456.673 166.263 458.86 164.125 460.411C165.932 460.412 167.718 460.02 169.359 459.264C171.001 458.508 172.459 457.405 173.633 456.032C174.807 454.658 175.67 453.046 176.161 451.307C176.652 449.568 176.761 447.743 176.479 445.958C176.197 444.173 175.532 442.47 174.529 440.967C173.526 439.464 172.209 438.196 170.669 437.25C169.128 436.305 167.402 435.705 165.607 435.491C163.813 435.277 161.993 435.455 160.274 436.012V436.012Z" stroke="#1D1D1B" stroke-width="3" stroke-linecap="round" stroke-linejoin="round"/>
<path d="M163.999 460.497C168.541 459.025 170.581 452.765 168.555 446.516C166.53 440.267 161.206 436.394 156.664 437.866C152.121 439.339 150.082 445.598 152.107 451.848C154.133 458.097 159.457 461.97 163.999 460.497Z" fill="#1D1D1B" stroke="#1D1D1B" stroke-width="3" stroke-linecap="round" stroke-linejoin="round"/>
<path d="M111.956 456.522C109.864 457.201 107.618 457.244 105.501 456.646C103.385 456.048 101.493 454.836 100.066 453.163C98.6386 451.489 97.7394 449.431 97.4822 447.246C97.225 445.062 97.6213 442.851 98.621 440.892C99.6207 438.933 101.179 437.314 103.098 436.241C105.018 435.168 107.213 434.688 109.405 434.862C111.598 435.036 113.689 435.857 115.415 437.22C117.141 438.583 118.424 440.427 119.102 442.519" stroke="#1D1D1B" stroke-width="3" stroke-linecap="round" stroke-linejoin="round"/>
<path d="M171.933 425.403C171.254 423.311 171.211 421.065 171.809 418.949C172.407 416.832 173.619 414.941 175.292 413.513C176.966 412.086 179.024 411.187 181.209 410.93C183.393 410.672 185.604 411.069 187.563 412.068C189.522 413.068 191.14 414.626 192.214 416.546C193.287 418.465 193.767 420.66 193.593 422.852C193.419 425.045 192.598 427.136 191.235 428.862C189.872 430.588 188.028 431.871 185.936 432.549" stroke="#1D1D1B" stroke-width="3" stroke-linecap="round" stroke-linejoin="round"/>
<path d="M154.515 462.73L151.511 463.704C150.767 463.945 150.359 464.741 150.6 465.483C150.84 466.225 151.638 466.63 152.381 466.389L155.386 465.416C156.13 465.174 156.538 464.378 156.297 463.636C156.057 462.894 155.259 462.489 154.515 462.73Z" fill="#1D1D1B" stroke="#1D1D1B" stroke-width="3" stroke-linecap="round" stroke-linejoin="round"/>
<path d="M141.834 427.481C141.438 426.517 141.254 425.478 141.294 424.437C141.362 421.804 142.626 419.703 144.117 419.749C145.609 419.795 146.758 421.948 146.69 424.581C146.681 425.635 146.442 426.674 145.989 427.625" fill="white"/>
<path d="M141.834 427.481C141.438 426.517 141.254 425.478 141.294 424.437C141.362 421.804 142.626 419.703 144.117 419.749C145.609 419.795 146.758 421.948 146.69 424.581C146.681 425.635 146.442 426.674 145.989 427.625" stroke="#1D1D1B" stroke-width="3" stroke-linecap="round" stroke-linejoin="round"/>
<path d="M142.595 428.752C142.296 427.504 141.73 426.335 140.936 425.327C138.973 422.77 136.21 421.598 134.764 422.709C133.318 423.82 133.729 426.788 135.685 429.345C136.451 430.374 137.43 431.225 138.554 431.842" fill="white"/>
<path d="M142.595 428.752C142.296 427.504 141.73 426.335 140.936 425.327C138.973 422.77 136.21 421.598 134.764 422.709C133.318 423.82 133.729 426.788 135.685 429.345C136.451 430.374 137.43 431.225 138.554 431.842" stroke="#1D1D1B" stroke-width="3" stroke-linecap="round" stroke-linejoin="round"/>
<path d="M29.3075 252.686C32.8717 252.686 35.761 249.797 35.761 246.233C35.761 242.669 32.8717 239.779 29.3075 239.779C25.7432 239.779 22.8539 242.669 22.8539 246.233C22.8539 249.797 25.7432 252.686 29.3075 252.686Z" fill="#F5CB1C" stroke="#1D1D1B" stroke-width="3" stroke-linecap="round" stroke-linejoin="round"/>
<path d="M287.302 413.75C288.983 415.43 290.316 417.425 291.225 419.621C292.135 421.817 292.603 424.17 292.603 426.547C292.603 428.923 292.135 431.277 291.225 433.472C290.316 435.668 288.983 437.663 287.303 439.343L267.262 459.384C266.392 460.254 265.211 460.743 263.98 460.743C262.749 460.743 261.568 460.254 260.697 459.384L241.669 440.355C240.798 439.485 240.309 438.304 240.309 437.073C240.309 435.841 240.798 434.661 241.669 433.79L261.709 413.75C263.389 412.069 265.384 410.736 267.58 409.827C269.776 408.917 272.129 408.449 274.506 408.449C276.882 408.449 279.236 408.917 281.431 409.827C283.627 410.736 285.622 412.069 287.302 413.75V413.75Z" fill="#F560B9" stroke="#1D1D1B" stroke-width="3" stroke-linecap="round" stroke-linejoin="round"/>
<path d="M246.506 445.699L255.332 454.524L242.788 467.068C241.618 468.239 240.03 468.896 238.375 468.896C236.72 468.896 235.133 468.239 233.962 467.068C232.792 465.898 232.135 464.311 232.135 462.656C232.135 461 232.792 459.413 233.962 458.243L246.506 445.699V445.699Z" fill="#1D1D1B" stroke="#1D1D1B" stroke-width="3" stroke-miterlimit="10"/>
<path d="M231.971 469.079C230.802 467.909 230.146 466.323 230.146 464.669C230.146 463.015 230.802 461.429 231.971 460.259L244.977 447.245L252.869 457.009L240.769 469.079C239.599 470.241 238.018 470.893 236.37 470.893C234.722 470.893 233.14 470.241 231.971 469.079Z" fill="#F5CB1C" stroke="#1D1D1B" stroke-width="3" stroke-miterlimit="10"/>
<path d="M284.033 442.61L275.441 451.202C275.036 451.602 274.489 451.826 273.919 451.826C273.35 451.826 272.803 451.602 272.397 451.202C271.997 450.797 271.773 450.25 271.773 449.68C271.773 449.111 271.997 448.564 272.397 448.158L275.517 445.038" fill="#F560B9"/>
<path d="M284.033 442.61L275.441 451.202C275.036 451.602 274.489 451.826 273.919 451.826C273.35 451.826 272.803 451.602 272.397 451.202C271.997 450.797 271.773 450.25 271.773 449.68C271.773 449.111 271.997 448.564 272.397 448.158L275.517 445.038" stroke="#1D1D1B" stroke-width="3" stroke-linecap="round" stroke-linejoin="round"/>
<path d="M64.5891 320.578C56.6199 323.913 50.2831 330.25 46.9483 338.219V338.219C43.6183 330.247 37.2799 323.908 29.3075 320.578V320.578C37.2827 317.253 43.6225 310.913 46.9483 302.938V302.938C50.2783 310.91 56.6167 317.248 64.5891 320.578V320.578Z" fill="#F560B9" stroke="#1D1D1B" stroke-width="3" stroke-linecap="round" stroke-linejoin="round"/>
<path d="M345.445 366.896L337.502 358.954C337.205 358.656 336.723 358.656 336.426 358.954L328.483 366.896C328.186 367.194 328.186 367.676 328.483 367.973L336.426 375.916C336.723 376.213 337.205 376.213 337.502 375.916L345.445 367.973C345.742 367.676 345.742 367.194 345.445 366.896Z" fill="#6ED477" stroke="#1D1D1B" stroke-width="3" stroke-miterlimit="10"/>
<path d="M263.699 106.773L258.668 109.547L281.383 150.747L286.415 147.973L263.699 106.773Z" fill="#F5CB1C" stroke="#1D1D1B" stroke-width="3" stroke-linecap="round" stroke-linejoin="round"/>
<path d="M260.556 113.09C261.447 112.732 262.316 112.32 263.158 111.857C263.999 111.397 264.812 110.889 265.594 110.335L263.661 106.834L258.623 109.612L260.556 113.09Z" fill="#1D1D1B" stroke="#1D1D1B" stroke-width="3" stroke-linecap="round" stroke-linejoin="round"/>
<path d="M236.964 104.939C239.914 107.914 243.711 109.908 247.835 110.649C251.96 111.39 256.212 110.842 260.014 109.079C263.816 107.317 266.982 104.425 269.082 100.799C271.182 97.1728 272.114 92.9875 271.75 88.8128C270.86 88.28 269.954 87.7626 269.056 87.2451L236.964 104.939Z" fill="#F560B9" stroke="#1D1D1B" stroke-width="3" stroke-linecap="round" stroke-linejoin="round"/>
<path d="M231.568 95.1142L257.177 80.9969C251.481 78.2942 245.637 75.916 239.673 73.8737C236.367 76.2106 233.831 79.4781 232.388 83.2604C230.945 87.0428 230.659 91.1691 231.568 95.1142V95.1142Z" fill="#F560B9" stroke="#1D1D1B" stroke-width="3" stroke-linecap="round" stroke-linejoin="round"/>
<path d="M257.177 81.0274L231.568 95.1141L229.909 96.0274C230.849 99.6965 232.705 103.067 235.304 105.822L236.964 104.909L269.056 87.2146C265.175 85.0076 261.215 82.9452 257.177 81.0274Z" fill="#F560B9" stroke="#1D1D1B" stroke-width="3" stroke-linecap="round" stroke-linejoin="round"/>
<path d="M324.878 202.268L326.332 206.476C326.778 207.764 327.511 208.934 328.474 209.897C329.438 210.861 330.607 211.593 331.895 212.04L336.104 213.493L331.895 214.947C330.606 215.393 329.436 216.127 328.472 217.092C327.509 218.057 326.777 219.228 326.332 220.518L324.878 224.718L323.425 220.518C322.98 219.228 322.248 218.057 321.284 217.092C320.321 216.127 319.15 215.393 317.862 214.947L313.653 213.493L317.862 212.04C319.149 211.593 320.319 210.861 321.282 209.897C322.246 208.934 322.978 207.764 323.425 206.476L324.878 202.268Z" fill="white" stroke="#1D1D1B" stroke-width="3" stroke-linecap="round" stroke-linejoin="round"/>
<path d="M193.851 33.3486C193.851 30.0155 191.151 27.3135 187.82 27.3135C184.489 27.3135 181.788 30.0155 181.788 33.3486V65.8904C181.788 69.2235 184.489 71.9254 187.82 71.9254C191.151 71.9254 193.851 69.2235 193.851 65.8904V33.3486Z" fill="white" stroke="#1D1D1B" stroke-width="3" stroke-linecap="round" stroke-linejoin="round"/>
<path d="M29.3075 171.172C30.2892 171.073 31.271 170.982 32.1614 171.872C33.9346 173.645 31.7809 175.799 33.5617 177.58C35.3425 179.361 37.4886 177.199 39.2694 178.98C41.0503 180.761 38.8965 182.915 40.6773 184.688" stroke="#1D1D1B" stroke-width="4" stroke-miterlimit="10" stroke-linecap="round"/>
<path d="M57.6332 384.307V386.575" stroke="#1D1D1B" stroke-width="3" stroke-linecap="round" stroke-linejoin="round"/>
<path d="M52.9299 386.263L54.5281 387.861" stroke="#1D1D1B" stroke-width="3" stroke-linecap="round" stroke-linejoin="round"/>
<path d="M50.9741 390.974H53.2344" stroke="#1D1D1B" stroke-width="3" stroke-linecap="round" stroke-linejoin="round"/>
<path d="M52.9299 395.685L54.5281 394.079" stroke="#1D1D1B" stroke-width="3" stroke-linecap="round" stroke-linejoin="round"/>
<path d="M57.6332 397.633V395.373" stroke="#1D1D1B" stroke-width="3" stroke-linecap="round" stroke-linejoin="round"/>
<path d="M62.344 395.685L60.7458 394.079" stroke="#1D1D1B" stroke-width="3" stroke-linecap="round" stroke-linejoin="round"/>
<path d="M64.2999 390.974H62.032" stroke="#1D1D1B" stroke-width="3" stroke-linecap="round" stroke-linejoin="round"/>
<path d="M62.344 386.263L60.7458 387.861" stroke="#1D1D1B" stroke-width="3" stroke-linecap="round" stroke-linejoin="round"/>
<circle cx="39" cy="91" r="5.5" fill="white" stroke="#1D1D1B" stroke-width="3"/>
</g>
<defs>
<clipPath id="clip0_288_167">
<rect width="375.875" height="500" fill="white"/>
</clipPath>
</defs>
</svg>
